<?xml version="1.0" standalone="no"?>
<!DOCTYPE svg PUBLIC "-//W3C//DTD SVG 20010904//EN"
 "http://www.w3.org/TR/2001/REC-SVG-20010904/DTD/svg10.dtd">
<svg version="1.0" xmlns="http://www.w3.org/2000/svg"
 width="1243.000000pt" height="1243.000000pt" viewBox="0 0 1243.000000 1243.000000"
 preserveAspectRatio="xMidYMid meet">
<metadata>
Created by potrace 1.11, written by Peter Selinger 2001-2013
</metadata>
<g transform="translate(0.000000,1243.000000) scale(0.100000,-0.100000)"
fill="#000000" stroke="none">
<path d="M4225 10434 c-61 -36 -136 -83 -167 -105 -62 -42 -82 -50 -83 -34 -8
81 -83 149 -174 158 -59 6 -130 -30 -166 -85 -39 -59 -40 -140 -1 -198 15 -23
43 -51 62 -62 29 -17 33 -23 22 -33 -7 -6 -66 -57 -130 -113 -225 -198 -492
-491 -664 -732 -107 -149 -178 -257 -233 -353 -10 -17 -35 -61 -56 -97 -106
-186 -234 -471 -305 -680 -23 -69 -43 -132 -45 -140 -2 -8 -15 -58 -28 -110
-24 -91 -42 -172 -53 -236 -2 -16 -7 -40 -9 -54 -3 -14 -7 -45 -10 -70 -3 -25
-7 -56 -10 -70 -27 -136 -27 -627 0 -851 4 -31 8 -55 21 -144 65 -422 247
-941 465 -1327 29 -51 60 -106 69 -123 106 -188 290 -422 481 -614 168 -169
349 -322 549 -463 469 -331 985 -556 1495 -652 18 -3 79 -13 140 -21 54 -8
124 -15 158 -17 20 -1 37 -7 37 -13 0 -6 -18 -78 -41 -160 -60 -224 -186 -694
-220 -825 -17 -63 -36 -120 -42 -127 -11 -11 -242 -158 -434 -277 -294 -182
-622 -390 -620 -393 2 -2 93 -5 203 -8 109 -3 267 -8 349 -10 83 -3 233 -7
335 -10 102 -3 259 -7 350 -10 205 -7 424 -13 690 -20 113 -3 268 -7 345 -10
77 -2 230 -7 340 -11 110 -3 230 -7 268 -9 530 -28 2112 -28 2612 0 39 2 129
7 200 10 72 4 150 8 175 10 25 1 92 6 150 9 58 4 123 9 145 11 22 2 72 7 110
10 150 13 291 28 370 40 57 9 205 33 240 40 74 14 179 52 202 73 l25 23 -21
23 c-37 40 -224 90 -406 111 -27 3 -59 7 -70 9 -11 2 -47 7 -80 10 -33 4 -73
9 -90 11 -16 2 -61 7 -100 10 -38 3 -92 8 -120 10 -27 3 -79 7 -115 10 -36 2
-99 7 -140 10 -141 10 -244 16 -580 30 -605 26 -1739 26 -2391 -1 l-137 -5
-113 55 c-63 31 -183 100 -268 153 l-154 98 -33 125 c-18 69 -38 141 -44 160
-5 19 -41 154 -80 300 -38 146 -74 281 -80 300 -23 82 -59 224 -57 226 1 1 42
5 91 8 94 7 142 12 216 23 25 3 52 7 60 8 71 9 117 16 130 20 8 2 31 6 50 9
57 9 94 16 115 23 11 3 29 7 40 9 36 5 68 13 180 45 61 16 115 31 120 33 6 1
48 15 95 31 47 16 87 30 90 30 3 1 14 5 25 10 11 4 64 26 119 47 95 38 284
128 396 189 151 84 416 275 527 382 l42 40 11 -27 c5 -15 10 -31 10 -35 0 -14
44 -59 80 -80 71 -42 182 -17 236 55 24 31 29 48 31 102 1 66 -6 88 -42 130
-17 20 -95 68 -102 63 -14 -7 -22 2 -11 13 20 20 128 162 128 168 0 3 -33 29
-72 58 -40 29 -87 64 -104 77 l-31 23 -66 -83 c-37 -45 -76 -92 -86 -105 l-20
-23 -33 37 c-67 75 -69 64 28 161 408 414 714 947 859 1498 85 323 118 572
119 895 0 128 -10 342 -18 385 -2 11 -7 47 -11 80 -11 96 -54 311 -85 426
-154 567 -440 1070 -845 1488 -99 102 -234 225 -350 320 -369 301 -919 555
-1418 656 -350 70 -796 91 -1077 50 -14 -2 -50 -7 -80 -10 -139 -16 -428 -81
-600 -137 -213 -68 -539 -219 -729 -338 l-84 -52 -23 29 c-52 63 -77 105 -68
111 117 79 279 184 311 202 l42 23 -61 119 c-33 65 -61 118 -62 118 -1 0 -51
-30 -111 -66z m-174 -550 l43 -56 -29 -22 c-54 -38 -229 -179 -269 -215 -82
-75 -234 -229 -296 -301 -36 -41 -67 -77 -70 -80 -3 -3 -39 -50 -81 -105 -410
-542 -628 -1120 -688 -1825 -8 -96 -6 -504 3 -550 2 -14 7 -52 10 -85 3 -33 8
-69 10 -80 2 -11 7 -42 10 -70 40 -298 165 -683 322 -995 243 -480 561 -862
994 -1196 411 -317 982 -565 1470 -640 19 -3 40 -7 47 -9 7 -2 45 -7 85 -11
40 -3 76 -8 79 -10 29 -17 467 -24 647 -11 155 12 354 41 491 73 36 9 73 17
81 19 121 28 362 109 497 165 294 124 622 325 856 524 37 31 68 56 70 56 3 0
26 -25 53 -56 l48 -57 -59 -54 c-308 -281 -653 -481 -1085 -628 -229 -78 -597
-159 -815 -180 -38 -4 -80 -8 -93 -10 -110 -17 -510 -24 -707 -12 -418 26
-793 124 -1188 311 -555 263 -1123 735 -1439 1196 -306 447 -527 1036 -598
1596 -7 49 -14 100 -16 114 -12 74 -12 517 1 642 31 309 110 624 228 910 192
461 490 911 857 1292 175 180 461 433 480 421 4 -2 27 -30 51 -61z"/>
</g>
</svg>
